<mxfile host="app.diagrams.net" modified="2023-12-03T14:17:35.193Z" agent="Mozilla/5.0 (Windows NT 10.0; Win64; x64) AppleWebKit/537.36 (KHTML, like Gecko) Chrome/119.0.0.0 Safari/537.36 OPR/105.0.0.0" version="22.1.5" etag="_8YY8nTTWIm24jZRYf8S" type="github">
  <diagram name="Страница — 1" id="BpqwCmyP9aFUcoh2NXjb">
    <mxGraphModel>
      <root>
        <mxCell id="0" />
        <mxCell id="1" parent="0" />
      </root>
    </mxGraphModel>
  </diagram>
</mxfile>
